<svg xmlns="http://www.w3.org/2000/svg" width="256" height="256" viewBox="0 0 100 100"><rect width="100" height="100" rx="20" fill="#9823ff"></rect><path fill="#ffffff" d="M26.72 36.90L26.72 36.90Q26.72 39.47 25.86 41.50Q25.00 43.53 23.52 44.97Q22.04 46.41 20.01 47.19Q17.98 47.97 15.72 47.97L15.72 47.97Q13.38 47.97 11.39 47.19Q9.40 46.41 7.92 44.97Q6.44 43.53 5.58 41.50Q4.72 39.47 4.72 36.90L4.72 36.90Q4.72 34.32 5.58 32.29Q6.44 30.27 7.92 28.82Q9.40 27.38 11.39 26.60Q13.38 25.82 15.72 25.82L15.72 25.82Q17.98 25.82 20.01 26.60Q22.04 27.38 23.52 28.82Q25.00 30.27 25.86 32.29Q26.72 34.32 26.72 36.90ZM10.26 36.90L10.26 36.90Q10.26 39.94 11.78 41.61Q13.30 43.29 15.72 43.29L15.72 43.29Q18.14 43.29 19.66 41.61Q21.18 39.94 21.18 36.90L21.18 36.90Q21.18 33.85 19.66 32.18Q18.14 30.50 15.72 30.50L15.72 30.50Q13.30 30.50 11.78 32.18Q10.26 33.85 10.26 36.90ZM15.09 68.80L43.80 25.82Q45.59 26.05 46.65 26.72Q47.70 27.38 47.70 28.47L47.70 28.47Q47.70 29.25 47.39 29.99Q47.07 30.73 46.45 31.59L46.45 31.59L17.82 74.41Q16.11 74.26 15.02 73.52Q13.92 72.78 13.92 71.68L13.92 71.68Q13.92 70.59 15.09 68.80L15.09 68.80ZM56.67 63.34L56.67 63.34Q56.67 65.91 55.81 67.98Q54.95 70.05 53.47 71.49Q51.99 72.93 50.00 73.71Q48.01 74.49 45.67 74.49L45.67 74.49Q43.41 74.49 41.38 73.71Q39.35 72.93 37.87 71.49Q36.39 70.05 35.53 67.98Q34.67 65.91 34.67 63.34L34.67 63.34Q34.67 60.84 35.53 58.81Q36.39 56.79 37.87 55.34Q39.35 53.90 41.38 53.12Q43.41 52.34 45.67 52.34L45.67 52.34Q48.01 52.34 50.00 53.12Q51.99 53.90 53.47 55.34Q54.95 56.79 55.81 58.81Q56.67 60.84 56.67 63.34ZM40.21 63.34L40.21 63.34Q40.21 66.46 41.73 68.13Q43.25 69.81 45.67 69.81L45.67 69.81Q48.09 69.81 49.61 68.13Q51.13 66.46 51.13 63.34L51.13 63.34Q51.13 60.37 49.61 58.70Q48.09 57.02 45.67 57.02L45.67 57.02Q43.25 57.02 41.73 58.70Q40.21 60.37 40.21 63.34ZM65.25 31.36L65.25 31.36Q65.25 30.34 66.30 29.29Q67.35 28.24 69.15 27.38Q70.94 26.52 73.36 26.01Q75.78 25.51 78.51 25.51L78.51 25.51Q86.07 25.51 90.33 29.17Q94.58 32.84 94.58 39.08L94.58 39.08Q94.58 41.19 94.03 43.25Q93.48 45.32 92.24 47.46Q90.99 49.61 88.96 51.95Q86.93 54.29 84.05 56.94L84.05 56.94L71.33 68.72L94.50 68.72Q94.81 69.11 95.04 69.73Q95.28 70.36 95.28 71.22L95.28 71.22Q95.28 73.87 92.86 73.87L92.86 73.87L65.33 73.87Q63.77 72.78 63.77 70.75L63.77 70.75Q63.77 68.49 65.64 66.69L65.64 66.69L79.68 53.20Q82.02 50.94 83.66 49.06Q85.30 47.19 86.27 45.55Q87.25 43.92 87.67 42.36Q88.10 40.80 88.10 39.16L88.10 39.16Q88.10 35.41 85.61 33.11Q83.11 30.81 78.04 30.81L78.04 30.81Q74.53 30.81 71.88 31.98Q69.23 33.15 67.43 34.48L67.43 34.48Q66.58 34.09 65.91 33.31Q65.25 32.53 65.25 31.36Z"></path></svg>